<?xml version="1.0" encoding="UTF-8"?> <svg xmlns="http://www.w3.org/2000/svg" viewBox="0 0 65.49 72.46"><defs><style>.cls-1{fill:#094;}.cls-2{fill:#231815;}</style></defs><title>アセット 2</title><g id="レイヤー_2" data-name="レイヤー 2"><g id="design"><path class="cls-1" d="M9,58.75a2.41,2.41,0,0,0-2.41,2.41v7.63a.66.66,0,1,0,1.32,0V61.16A1.08,1.08,0,0,1,9,60.08a.67.67,0,0,0,0-1.33Zm54.36,4.72c-.86-.86-1.39-1.38-1.39-2.31a1.09,1.09,0,0,1,2.17,0,.66.66,0,1,0,1.32,0,2.41,2.41,0,1,0-4.81,0c0,1.48.87,2.34,1.78,3.25l.32.32c.87.86,1.39,1.38,1.39,2.31A1.09,1.09,0,0,1,62,67a.66.66,0,0,0-1.32,0,2.41,2.41,0,1,0,4.81,0c0-1.48-.86-2.34-1.78-3.25ZM43.22,58.75a.67.67,0,0,0,0,1.33,1.08,1.08,0,0,1,1.09,1.08v.41a.28.28,0,0,1-.09.22l-1.84,1.84A4.75,4.75,0,0,0,40.82,67a2.41,2.41,0,1,0,4.81,0V61.16A2.41,2.41,0,0,0,43.22,58.75ZM44.31,67a1.09,1.09,0,0,1-2.17,0,3.43,3.43,0,0,1,1.17-2.47l.47-.47A.31.31,0,0,1,44,64a.25.25,0,0,1,.12,0,.32.32,0,0,1,.19.28ZM2.41,58.75A2.41,2.41,0,0,0,0,61.16V67a2.41,2.41,0,0,0,2.41,2.41,2.22,2.22,0,0,0,.68-.12.3.3,0,0,1,.28,0,.33.33,0,0,1,.12.25v.42a1.09,1.09,0,0,1-1.08,1.09.66.66,0,1,0,0,1.32,2.41,2.41,0,0,0,2.4-2.41V61.16A2.41,2.41,0,0,0,2.41,58.75ZM3.49,67a1.09,1.09,0,0,1-2.17,0V61.16a1.09,1.09,0,0,1,2.17,0ZM58.21,56.15a.67.67,0,0,0-.66.66v1.75a.33.33,0,0,1-.12.25.34.34,0,0,1-.28,0,2.6,2.6,0,0,0-.68-.1,2.41,2.41,0,0,0-2.41,2.41V67a2.41,2.41,0,1,0,4.81,0V56.81A.66.66,0,0,0,58.21,56.15ZM57.55,67a1.09,1.09,0,0,1-2.17,0V61.16a1.09,1.09,0,0,1,2.17,0ZM36.6,58.75a2.22,2.22,0,0,0-.68.12.31.31,0,0,1-.4-.3V56.81a.66.66,0,0,0-1.32,0v12a.66.66,0,0,0,1.32,0V61.16a1.09,1.09,0,0,1,2.17,0v7.63a.66.66,0,0,0,1.32,0V61.16A2.41,2.41,0,0,0,36.6,58.75Zm-23.07,0a2.41,2.41,0,0,0-2.4,2.41V67a2.41,2.41,0,0,0,2.4,2.41.67.67,0,1,0,0-1.33A1.08,1.08,0,0,1,12.45,67v-.41a.28.28,0,0,1,.09-.22l1.84-1.84a4.75,4.75,0,0,0,1.56-3.41A2.41,2.41,0,0,0,13.53,58.75Zm-.08,4.88L13,64.1a.31.31,0,0,1-.34.07.32.32,0,0,1-.19-.28V61.16a1.09,1.09,0,0,1,2.17,0A3.43,3.43,0,0,1,13.45,63.63Zm6.71-4.88a2.41,2.41,0,0,0-2.41,2.41V67a2.41,2.41,0,0,0,2.41,2.41.67.67,0,0,0,0-1.33A1.08,1.08,0,0,1,19.07,67v-.41a.28.28,0,0,1,.09-.22L21,64.57a4.75,4.75,0,0,0,1.56-3.41A2.41,2.41,0,0,0,20.16,58.75Zm-.09,4.88-.47.47a.31.31,0,0,1-.34.07.32.32,0,0,1-.19-.28V61.16a1.09,1.09,0,0,1,2.17,0A3.43,3.43,0,0,1,20.07,63.63Zm6.71-4.88a2.41,2.41,0,0,0-2.41,2.41v7.63a.66.66,0,1,0,1.32,0V61.16a1.09,1.09,0,0,1,2.17,0v7.63a.66.66,0,1,0,1.32,0V61.16A2.41,2.41,0,0,0,26.78,58.75Zm23.07,0a2.41,2.41,0,0,0-2.41,2.41v7.63a.66.66,0,0,0,1.32,0V61.16a1.09,1.09,0,0,1,2.17,0v7.63a.66.66,0,0,0,1.32,0V61.16A2.41,2.41,0,0,0,49.85,58.75Z"></path><path class="cls-1" d="M28.85,23.53a25.05,25.05,0,0,0-3,4.11q.9-.09,1.86-.15c.69-1.57,1.41-3,1.95-3.93S29.66,22.67,28.85,23.53Z"></path><path class="cls-1" d="M35.84,23.56c.54,1,1.26,2.36,1.95,3.93q1,.06,1.86.15a24.49,24.49,0,0,0-3-4.11C35.83,22.67,35.33,22.65,35.84,23.56Z"></path><path class="cls-1" d="M25.66,24a14.35,14.35,0,0,0,6.68-8.42c.1-.32.21-.47.41-.47s.31.15.4.47A14.39,14.39,0,0,0,39.83,24a32,32,0,0,1,5.55,4.42,37.92,37.92,0,0,1,5.33,1.48c-2-4.31-5.91-7-9-9.07a17.93,17.93,0,0,1-3.42-2.66A6.9,6.9,0,0,1,36.68,14a12.77,12.77,0,0,1,.92-4.73c.2-.44-.05-.73-.38-.51a7.06,7.06,0,0,0-3,4.23l0,0c-.08.31-.21.33-.26,0s-.5-4-.61-4.5-.31-1.38-.61-1.38-.52.9-.62,1.38-.55,4.16-.61,4.5-.18.31-.26,0c0,0,0,0,0,0a7.07,7.07,0,0,0-3-4.23c-.33-.22-.58.07-.38.51A12.58,12.58,0,0,1,28.82,14a6.85,6.85,0,0,1-1.62,4.17,17.61,17.61,0,0,1-3.42,2.66c-3.08,2.09-7,4.76-9,9.07a37.54,37.54,0,0,1,5.33-1.48A32,32,0,0,1,25.66,24Z"></path><path class="cls-1" d="M46.15,40.38a7.29,7.29,0,0,1-3.26,1.36h0a1.09,1.09,0,0,1-.24,0l-.24,0c-.74,0-.54-1-.44-2.14a1.87,1.87,0,0,0,0-.27c-.62-.1-1.27-.2-2-.28a9.13,9.13,0,0,1-1.73,3.82,6.66,6.66,0,0,1-5.56,2.66,6.68,6.68,0,0,1-5.57-2.66,9.19,9.19,0,0,1-1.72-3.82c-.69.08-1.34.18-2,.28,0,.11,0,.2,0,.27.1,1.14.3,2.09-.44,2.14l-.24,0a1,1,0,0,1-.23,0h0a7.2,7.2,0,0,1-3.26-1.36c-1.44.39-2.62.78-3.59,1.1l-.32.1a9.48,9.48,0,0,0,1.68,1.73,10.25,10.25,0,0,0,7.57,2.18,11.06,11.06,0,0,0,8.06,3.85,11.05,11.05,0,0,0,8-3.85,10.24,10.24,0,0,0,7.57-2.18,9.48,9.48,0,0,0,1.68-1.73l-.31-.1C48.76,41.16,47.58,40.77,46.15,40.38Z"></path><path class="cls-2" d="M38.55,33.73l1.11.09-.42-2ZM19.49,32.8a.49.49,0,0,0-.25-.18,1.27,1.27,0,0,0-.53,0l-.68.14.23,1.29.66-.13a1.73,1.73,0,0,0,.44-.15.55.55,0,0,0,.24-.26.69.69,0,0,0,0-.41A.71.71,0,0,0,19.49,32.8ZM12,44.84a2.91,2.91,0,0,1-1.42-2.1l-.58-4A36,36,0,0,0,5,41.38l-1.18.73,4.7,2.8-.65,7.15L9.4,51A23,23,0,0,1,15,48.14c.53-.2,1-.39,1.51-.6,1.51-.66,2.28-1.29,2.6-2.13,0,0,0-.1,0-.15-.25-.11-.49-.22-.74-.35C15.76,45.75,13.41,45.74,12,44.84ZM47.58,32.93a1.52,1.52,0,0,0-.56-.22l-.49-.1L46,35.8l.57.12.29,0a.63.63,0,0,0,.23,0,.49.49,0,0,0,.22-.1,2.06,2.06,0,0,0,.62-1.31,2.67,2.67,0,0,0,0-1.08A.84.84,0,0,0,47.58,32.93Zm14.06,9.18-1.18-.73a36.16,36.16,0,0,0-4.92-2.62l-.58,4a2.91,2.91,0,0,1-1.42,2.1c-1.46.9-3.8.91-6.47.07-.24.13-.49.24-.74.35,0,.05,0,.1.05.15.31.84,1.09,1.47,2.6,2.13.48.21,1,.4,1.5.6A23,23,0,0,1,56.09,51l1.5,1.06-.66-7.15Zm-10.7-.91a2.28,2.28,0,0,1,1.68,1.36.68.68,0,0,1-.3.31,4.41,4.41,0,0,1-2.8.26,9.83,9.83,0,0,1-.76.67c-.31.25-.63.47-.95.68,2.25.62,4.19.57,5.4-.18a2.25,2.25,0,0,0,1.12-1.64l1.14-7.76,0-.13a4.81,4.81,0,0,0-2.69-3.36c-3.45-1.62-9.73-3.55-20-3.55s-16.56,1.93-20,3.55A4.81,4.81,0,0,0,10,34.77l0,.13,1.14,7.76a2.29,2.29,0,0,0,1.13,1.64c1.2.75,3.14.8,5.39.18-.32-.21-.64-.43-.95-.68s-.51-.44-.76-.67a4.42,4.42,0,0,1-2.8-.26.68.68,0,0,1-.3-.31,2.28,2.28,0,0,1,1.68-1.36l1-.32a49.93,49.93,0,0,1,17.19-2.74,49.86,49.86,0,0,1,17.18,2.74ZM17.09,36.58a1.13,1.13,0,0,1-.14.22,3.11,3.11,0,0,1-.55.5,2.18,2.18,0,0,1-.64.28,1.68,1.68,0,0,1-.8,0,1.57,1.57,0,0,1-.7-.31,2.42,2.42,0,0,1-.55-.66,3.75,3.75,0,0,1-.36-1,3.39,3.39,0,0,1-.11-1,2.13,2.13,0,0,1,.19-.86,1.69,1.69,0,0,1,.48-.64,1.9,1.9,0,0,1,.75-.38,1.43,1.43,0,0,1,.67-.05,1.28,1.28,0,0,1,.54.19,1.23,1.23,0,0,1,.35.33.78.78,0,0,1,.18.35.46.46,0,0,1,0,.33.32.32,0,0,1-.38.19.65.65,0,0,1-.15-.1,2.32,2.32,0,0,0-.33-.35.74.74,0,0,0-.3-.17.8.8,0,0,0-.43,0,.94.94,0,0,0-.43.23,1.11,1.11,0,0,0-.26.42,2,2,0,0,0-.1.58,3.07,3.07,0,0,0,.09.71,2.33,2.33,0,0,0,.59,1.18.92.92,0,0,0,.92.21,1.28,1.28,0,0,0,.46-.21,2.24,2.24,0,0,0,.39-.37l-.18-.75-.56.15a.54.54,0,0,1-.33,0,.31.31,0,0,1-.17-.24.38.38,0,0,1,0-.28.33.33,0,0,1,.21-.17l.83-.22a.93.93,0,0,1,.27,0,.36.36,0,0,1,.21.11.83.83,0,0,1,.15.34l.21.89a1.23,1.23,0,0,1,0,.29A.43.43,0,0,1,17.09,36.58ZM21,36.2a.32.32,0,0,1-.1.17.31.31,0,0,1-.18.09.28.28,0,0,1-.22,0,.55.55,0,0,1-.18-.16L20.06,36l-.41-.57a4.11,4.11,0,0,0-.37-.48.85.85,0,0,0-.31-.2.91.91,0,0,0-.33,0l-.26,0,.26,1.51a.75.75,0,0,1,0,.46.36.36,0,0,1-.25.2.32.32,0,0,1-.3-.09.82.82,0,0,1-.17-.42l-.64-3.61a.84.84,0,0,1,0-.47.44.44,0,0,1,.33-.21l1.2-.24a2.74,2.74,0,0,1,.43-.06.74.74,0,0,1,.34.05.81.81,0,0,1,.36.2,1.41,1.41,0,0,1,.27.36,1.84,1.84,0,0,1,.15.47,1.43,1.43,0,0,1-.08.89,1.37,1.37,0,0,1-.62.59,1.48,1.48,0,0,1,.44.32,4.11,4.11,0,0,1,.42.5,3.69,3.69,0,0,1,.32.49A1.2,1.2,0,0,1,21,36,.41.41,0,0,1,21,36.2Zm3.39-.47a.34.34,0,0,1-.25.15l-2,.28a.42.42,0,0,1-.37-.09.67.67,0,0,1-.16-.44l-.44-3.56a1.31,1.31,0,0,1,0-.35.33.33,0,0,1,.13-.21.44.44,0,0,1,.25-.09l2-.28a.32.32,0,0,1,.28.07.45.45,0,0,1,.12.25.42.42,0,0,1-.06.28.3.3,0,0,1-.25.14l-1.69.24L22,33.28l1.56-.21a.28.28,0,0,1,.26.06.35.35,0,0,1,.12.25.39.39,0,0,1-.05.27.33.33,0,0,1-.25.14L22.11,34l.16,1.35L24,35.11a.36.36,0,0,1,.28.07.38.38,0,0,1,.12.27A.37.37,0,0,1,24.36,35.73Zm3.42-.3a.32.32,0,0,1-.26.13l-2,.17a.43.43,0,0,1-.37-.1.8.8,0,0,1-.14-.45L24.7,31.6a.93.93,0,0,1,0-.35.32.32,0,0,1,.13-.2.5.5,0,0,1,.26-.08l2-.17a.3.3,0,0,1,.27.08.37.37,0,0,1,.11.26.38.38,0,0,1-.07.28.34.34,0,0,1-.26.12l-1.69.15.08,1.17,1.57-.14a.32.32,0,0,1,.26.08.42.42,0,0,1,.11.26.47.47,0,0,1-.07.27.32.32,0,0,1-.25.12l-1.56.14.1,1.35,1.75-.15a.33.33,0,0,1,.28.09.42.42,0,0,1,.11.27A.37.37,0,0,1,27.78,35.43Zm3.38.06a.41.41,0,0,1-.19,0,.48.48,0,0,1-.15-.11.72.72,0,0,1-.14-.19l-.13-.21-1.5-2.74.08,2.8a.73.73,0,0,1-.08.42.35.35,0,0,1-.25.15.28.28,0,0,1-.26-.14.64.64,0,0,1-.11-.4l-.11-3.69a1,1,0,0,1,0-.37.5.5,0,0,1,.15-.25.37.37,0,0,1,.24-.1.33.33,0,0,1,.17,0,.33.33,0,0,1,.13.11.7.7,0,0,1,.12.18l.13.23L30.82,34l-.08-2.84a.7.7,0,0,1,.08-.42.27.27,0,0,1,.24-.15.29.29,0,0,1,.26.13.74.74,0,0,1,.11.41l.11,3.76C31.56,35.26,31.43,35.48,31.16,35.49ZM36.79,35a.83.83,0,0,1-.12.44.37.37,0,0,1-.28.14.34.34,0,0,1-.27-.16A.71.71,0,0,1,36,35l0-1.61-1.63-.05,0,1.61a.68.68,0,0,1-.12.44.34.34,0,0,1-.28.14.32.32,0,0,1-.26-.16.71.71,0,0,1-.09-.44l.09-3.77a.83.83,0,0,1,.11-.44.33.33,0,0,1,.55,0,.73.73,0,0,1,.1.44l0,1.37,1.63,0,0-1.37a.75.75,0,0,1,.11-.44.31.31,0,0,1,.28-.14.35.35,0,0,1,.27.16.74.74,0,0,1,.09.44Zm3.82.74a.31.31,0,0,1-.27.12.33.33,0,0,1-.15,0l-.1-.12s-.05-.13-.08-.23,0-.18-.06-.26l-.14-.61-1.51-.12-.22.59a2.91,2.91,0,0,1-.21.47.26.26,0,0,1-.25.11.3.3,0,0,1-.24-.16.42.42,0,0,1-.09-.31.79.79,0,0,1,0-.2c0-.06.05-.16.1-.28l1.17-3c0-.09.08-.19.12-.31a2.09,2.09,0,0,1,.15-.3.66.66,0,0,1,.18-.19.45.45,0,0,1,.27-.06.47.47,0,0,1,.25.1.65.65,0,0,1,.16.21,1.43,1.43,0,0,1,.09.27l.09.38.75,3.16a1.8,1.8,0,0,1,.08.52A.48.48,0,0,1,40.61,35.71ZM44.84,32l-.46,3.73q-.08.63-.48.57a.48.48,0,0,1-.18-.06.44.44,0,0,1-.13-.14.7.7,0,0,1-.11-.21c0-.07-.07-.15-.1-.24l-1.06-3L42,35.46a.71.71,0,0,1-.15.4.3.3,0,0,1-.27.11.32.32,0,0,1-.24-.18.7.7,0,0,1,0-.42l.44-3.66a1.16,1.16,0,0,1,.09-.36.46.46,0,0,1,.19-.22.37.37,0,0,1,.25-.06.33.33,0,0,1,.17.07.47.47,0,0,1,.11.13,1.29,1.29,0,0,1,.09.2c0,.08.05.16.08.25l1.1,3,.35-2.82a.72.72,0,0,1,.14-.4.28.28,0,0,1,.27-.1.29.29,0,0,1,.23.17A.76.76,0,0,1,44.84,32Zm3.79,2.7a4.65,4.65,0,0,1-.2.76,2.32,2.32,0,0,1-.29.59,1.68,1.68,0,0,1-.4.44,1.36,1.36,0,0,1-.37.21,1.34,1.34,0,0,1-.4.06,2.68,2.68,0,0,1-.46,0l-1-.2a.6.6,0,0,1-.29-.14.37.37,0,0,1-.09-.25,2,2,0,0,1,0-.38l.62-3.44a.75.75,0,0,1,.19-.43.44.44,0,0,1,.37-.06l1,.2a2.32,2.32,0,0,1,.63.22,1.3,1.3,0,0,1,.43.44A2.87,2.87,0,0,1,48.63,34.69Zm.63,2.45a1.37,1.37,0,0,1-.28-.61,1.39,1.39,0,0,1,0-.64.46.46,0,0,1,.16-.27.32.32,0,0,1,.27-.06.28.28,0,0,1,.17.15.89.89,0,0,1,.07.32,2.11,2.11,0,0,0,.06.41.68.68,0,0,0,.17.31.7.7,0,0,0,.35.2.76.76,0,0,0,.58-.05.64.64,0,0,0,.32-.43.63.63,0,0,0,0-.41.8.8,0,0,0-.23-.29c-.11-.08-.25-.18-.43-.29a3.25,3.25,0,0,1-.58-.45,1.24,1.24,0,0,1-.31-1.26,1.45,1.45,0,0,1,.32-.63,1.09,1.09,0,0,1,.58-.33,1.58,1.58,0,0,1,.77,0,1.65,1.65,0,0,1,.55.26,1.49,1.49,0,0,1,.33.39,1.28,1.28,0,0,1,.15.44,1,1,0,0,1,0,.39.56.56,0,0,1-.16.28.31.31,0,0,1-.27.07.26.26,0,0,1-.17-.13,1.91,1.91,0,0,1-.08-.31,1.39,1.39,0,0,0-.13-.47A.68.68,0,0,0,51,33.5a.65.65,0,0,0-.5,0,.52.52,0,0,0-.26.59.53.53,0,0,0,.12.22l.18.17.32.21a5.63,5.63,0,0,1,.51.36,2,2,0,0,1,.35.38,1.26,1.26,0,0,1,.18.48,1.77,1.77,0,0,1-.39,1.32,1.18,1.18,0,0,1-.62.39,1.53,1.53,0,0,1-.82,0A1.46,1.46,0,0,1,49.26,37.14Z"></path><path class="cls-2" d="M13.78,11.44a2.84,2.84,0,0,1-.16.81,1.92,1.92,0,0,1-.4.66,1.39,1.39,0,0,1-.56.4,1.08,1.08,0,0,1-1.49-.85,1.33,1.33,0,0,1,.19-.8l.24-.42c.13-.22.24-.41.32-.58s.18-.34.28-.54a1.13,1.13,0,0,0-.54-.27c-.16,0-.33.1-.53.32a1.14,1.14,0,0,0-.3.5.9.9,0,0,0,0,.46,1.45,1.45,0,0,1,.08.33c0,.06,0,.13-.11.23a.4.4,0,0,1-.27.14.31.31,0,0,1-.29-.09.87.87,0,0,1-.26-.48,1.4,1.4,0,0,1,.08-.71,2.66,2.66,0,0,1,.54-.85A2.69,2.69,0,0,1,11.42,9,1,1,0,0,1,12.14,9a2,2,0,0,1,.77.48l.45.4c.12.11.26.23.4.37a2.33,2.33,0,0,0,.51.32,1.76,1.76,0,0,1,.35.19.38.38,0,0,1,.12.3.44.44,0,0,1-.44.46A2,2,0,0,1,13.78,11.44Zm-1.13-.92a4.71,4.71,0,0,1-.3.59l-.29.53A.74.74,0,0,0,12,12a.44.44,0,0,0,.16.34.48.48,0,0,0,.4.12.6.6,0,0,0,.42-.23,1.18,1.18,0,0,0,.27-.49.84.84,0,0,0,0-.5,1.54,1.54,0,0,0-.46-.6Z"></path><path class="cls-2" d="M17.36,7a2.46,2.46,0,0,1,.33.77,1.78,1.78,0,0,1,0,.76,1.73,1.73,0,0,1-.3.7,2.44,2.44,0,0,1-1.37.9,1.94,1.94,0,0,1-.76,0,2,2,0,0,1-.69-.32A2.27,2.27,0,0,1,14,9.14a2.27,2.27,0,0,1-.34-.77,1.78,1.78,0,0,1,0-.76,1.64,1.64,0,0,1,.3-.69,2.05,2.05,0,0,1,.6-.57A2.41,2.41,0,0,1,15.34,6a1.77,1.77,0,0,1,.76,0,1.8,1.8,0,0,1,.69.32A2.4,2.4,0,0,1,17.36,7Zm-.84.55a1.55,1.55,0,0,0-.75-.65A.89.89,0,0,0,15,7a.87.87,0,0,0-.35.41,1,1,0,0,0,0,.56,1.73,1.73,0,0,0,.28.65,1.69,1.69,0,0,0,.48.51,1,1,0,0,0,.53.19.93.93,0,0,0,.52-.16.85.85,0,0,0,.42-.68A1.5,1.5,0,0,0,16.52,7.5Z"></path><path class="cls-2" d="M21.35,5.39l.46,1.25a.71.71,0,0,1,0,.49.53.53,0,0,1-.71.26.71.71,0,0,1-.29-.4l-.55-1.5A5.44,5.44,0,0,0,20.06,5a.55.55,0,0,0-.25-.27.45.45,0,0,0-.38,0c-.31.12-.47.3-.49.54a2.48,2.48,0,0,0,.18,1l.47,1.27a.71.71,0,0,1,0,.49.44.44,0,0,1-.3.28.47.47,0,0,1-.4,0,.69.69,0,0,1-.3-.39l-1-2.7a.64.64,0,0,1,0-.45.45.45,0,0,1,.27-.25.47.47,0,0,1,.37,0,.51.51,0,0,1,.26.31l0,.09a1.7,1.7,0,0,1,.37-.62,1.41,1.41,0,0,1,.57-.37,1.31,1.31,0,0,1,.66-.08,1.15,1.15,0,0,1,.58.27,1.94,1.94,0,0,1,.35-.62A1.59,1.59,0,0,1,21.63,3,1.53,1.53,0,0,1,22.35,3a1.1,1.1,0,0,1,.57.28,2.15,2.15,0,0,1,.42.76L24,5.83a.68.68,0,0,1,0,.5.45.45,0,0,1-.3.27.43.43,0,0,1-.4,0,.62.62,0,0,1-.3-.39l-.58-1.58a4.12,4.12,0,0,0-.21-.48A.57.57,0,0,0,22,3.87a.48.48,0,0,0-.39,0,.6.6,0,0,0-.31.24.76.76,0,0,0-.16.39A2.56,2.56,0,0,0,21.35,5.39Z"></path><path class="cls-2" d="M28.32,3.69a2.64,2.64,0,0,1,0,.84,1.94,1.94,0,0,1-.29.71,1.82,1.82,0,0,1-.55.52A2.39,2.39,0,0,1,26.7,6a2.31,2.31,0,0,1-.83,0,1.92,1.92,0,0,1-.7-.31,2.11,2.11,0,0,1-.51-.56,2.46,2.46,0,0,1-.27-.79,2.22,2.22,0,0,1,0-.85,1.76,1.76,0,0,1,.83-1.22A2.4,2.4,0,0,1,26,2a2.15,2.15,0,0,1,.84,0,1.65,1.65,0,0,1,.69.3A1.75,1.75,0,0,1,28,2.9,2.18,2.18,0,0,1,28.32,3.69Zm-1,.17A1.53,1.53,0,0,0,26.9,3a.95.95,0,0,0-1.26,0,.89.89,0,0,0-.26.5,1.65,1.65,0,0,0,0,.7,1.77,1.77,0,0,0,.23.66,1,1,0,0,0,.42.38.89.89,0,0,0,.54.07.9.9,0,0,0,.66-.47A1.54,1.54,0,0,0,27.33,3.86Z"></path><path class="cls-2" d="M30.22,4.16l.05.84a.68.68,0,0,1-.11.46.49.49,0,0,1-.36.18.47.47,0,0,1-.36-.13.66.66,0,0,1-.17-.45l-.18-2.78c0-.45.12-.69.45-.71a.4.4,0,0,1,.36.13,1,1,0,0,1,.16.46,1.74,1.74,0,0,1,.33-.49.84.84,0,0,1,.5-.19,1.35,1.35,0,0,1,.62.12.46.46,0,0,1,.32.4.38.38,0,0,1-.1.31.4.4,0,0,1-.27.14l-.27-.05a1.37,1.37,0,0,0-.38,0,.58.58,0,0,0-.35.14.69.69,0,0,0-.19.36,2.17,2.17,0,0,0-.07.55A6.92,6.92,0,0,0,30.22,4.16Z"></path><path class="cls-2" d="M33.54,2l0,2.9a.61.61,0,0,1-.15.45.46.46,0,0,1-.36.16.48.48,0,0,1-.36-.17.61.61,0,0,1-.13-.45l0-2.87a.66.66,0,0,1,.15-.45.52.52,0,0,1,.72,0A.61.61,0,0,1,33.54,2Zm-.49-1a.52.52,0,0,1-.36-.13.5.5,0,0,1-.14-.37A.47.47,0,0,1,32.7.13.55.55,0,0,1,33.06,0a.47.47,0,0,1,.34.13.43.43,0,0,1,.15.36.43.43,0,0,1-.15.36A.49.49,0,0,1,33.05,1Z"></path><path class="cls-2" d="M40.38,2.89l-.44,2.88a3,3,0,0,1-.24.84,1.4,1.4,0,0,1-.42.53,1.5,1.5,0,0,1-.66.26,4,4,0,0,1-1,0,2.82,2.82,0,0,1-.89-.29,1.69,1.69,0,0,1-.57-.46.66.66,0,0,1-.14-.5.4.4,0,0,1,.17-.28.48.48,0,0,1,.31-.07.52.52,0,0,1,.35.25l.14.23a1.56,1.56,0,0,0,.16.2,1,1,0,0,0,.23.14,1.14,1.14,0,0,0,.33.08,1.4,1.4,0,0,0,.62,0,.64.64,0,0,0,.34-.26A1.11,1.11,0,0,0,38.87,6c0-.15.08-.38.13-.71a1.57,1.57,0,0,1-.6.41,1.61,1.61,0,0,1-1.57-.33,1.6,1.6,0,0,1-.46-.8,2.57,2.57,0,0,1,0-1.08,2.36,2.36,0,0,1,.24-.79A1.77,1.77,0,0,1,37,2.15a1.47,1.47,0,0,1,.57-.29,1.87,1.87,0,0,1,.67,0,1.68,1.68,0,0,1,.71.28,1.63,1.63,0,0,1,.49.59l0-.13a.63.63,0,0,1,.19-.39A.44.44,0,0,1,40,2.09a.38.38,0,0,1,.35.25A1.2,1.2,0,0,1,40.38,2.89Zm-3.07.82a1.35,1.35,0,0,0,.13,1,.85.85,0,0,0,.63.42A.93.93,0,0,0,38.56,5,1,1,0,0,0,39,4.67,1.51,1.51,0,0,0,39.21,4a1.53,1.53,0,0,0-.12-1,.87.87,0,0,0-.65-.45.83.83,0,0,0-.73.22A1.45,1.45,0,0,0,37.31,3.71Z"></path><path class="cls-2" d="M43.1,6.51a3.52,3.52,0,0,1-.8.21,2.09,2.09,0,0,1-.77-.08,1.45,1.45,0,0,1-.61-.34,1,1,0,0,1-.31-.52,1.08,1.08,0,0,1,0-.59,1.05,1.05,0,0,1,.45-.6,1.3,1.3,0,0,1,.8-.17l.48,0,.66,0,.61,0a1.15,1.15,0,0,0,0-.61.74.74,0,0,0-.51-.34,1.3,1.3,0,0,0-.59-.06.84.84,0,0,0-.4.22l-.27.21a.34.34,0,0,1-.25,0,.44.44,0,0,1-.25-.19.35.35,0,0,1,0-.3A.85.85,0,0,1,41.63,3a1.31,1.31,0,0,1,.68-.23,2.62,2.62,0,0,1,1,.12,2.87,2.87,0,0,1,1,.44,1,1,0,0,1,.37.63,2.17,2.17,0,0,1-.1.9c-.07.23-.12.42-.17.57L44.2,6a1.87,1.87,0,0,0-.07.59,3,3,0,0,1,0,.41.39.39,0,0,1-.22.22.43.43,0,0,1-.35,0A.42.42,0,0,1,43.28,7,2.44,2.44,0,0,1,43.1,6.51Zm.34-1.42a3.86,3.86,0,0,1-.67,0l-.59,0a.83.83,0,0,0-.34.07.44.44,0,0,0-.24.29.52.52,0,0,0,.06.42.61.61,0,0,0,.39.28,1.07,1.07,0,0,0,.56,0,.87.87,0,0,0,.45-.22,1.51,1.51,0,0,0,.34-.68Z"></path><path class="cls-2" d="M46.09,6.71l-.34.77a.65.65,0,0,1-.32.35.44.44,0,0,1-.39,0,.48.48,0,0,1-.27-.29.68.68,0,0,1,.06-.47L46,4.52q.28-.61.72-.42a.41.41,0,0,1,.27.29.89.89,0,0,1-.08.48,1.83,1.83,0,0,1,.53-.28.81.81,0,0,1,.52.06,1.36,1.36,0,0,1,.5.4.46.46,0,0,1,.1.5.42.42,0,0,1-.24.23.44.44,0,0,1-.3,0,1,1,0,0,1-.22-.17,1.06,1.06,0,0,0-.31-.21.49.49,0,0,0-.37,0,.69.69,0,0,0-.34.22,2.37,2.37,0,0,0-.32.45C46.33,6.21,46.21,6.44,46.09,6.71Z"></path><path class="cls-2" d="M47.65,8.41l2.19-3.76a.7.7,0,0,1,.35-.32.42.42,0,0,1,.39,0,.46.46,0,0,1,.24.31.68.68,0,0,1-.11.47L48.52,8.92a.66.66,0,0,1-.35.32.49.49,0,0,1-.39-.05.42.42,0,0,1-.23-.32A.68.68,0,0,1,47.65,8.41Z"></path><path class="cls-2" d="M51.84,7.68,50.14,10a.68.68,0,0,1-.38.28.51.51,0,0,1-.59-.42.67.67,0,0,1,.16-.45L51,7.11a.64.64,0,0,1,.37-.28.45.45,0,0,1,.38.09.48.48,0,0,1,.21.33A.62.62,0,0,1,51.84,7.68ZM52,6.55a.57.57,0,0,1-.21-.32.46.46,0,0,1,.09-.38.41.41,0,0,1,.33-.19.49.49,0,0,1,.37.09.55.55,0,0,1,.2.3.42.42,0,0,1-.09.39.5.5,0,0,1-.33.21A.52.52,0,0,1,52,6.55Z"></path><path class="cls-2" d="M53.82,12.72a1.17,1.17,0,0,1-.37.19,1.32,1.32,0,0,1-.53,0,1.67,1.67,0,0,1-.63-.21,2.47,2.47,0,0,1-.62-.49,1.91,1.91,0,0,1-.59-1.43,2,2,0,0,1,.7-1.37,2.4,2.4,0,0,1,1-.57,1.74,1.74,0,0,1,1,0,2.21,2.21,0,0,1,.93.61,2.24,2.24,0,0,1,.4.6,1.78,1.78,0,0,1,.16.61,1.39,1.39,0,0,1,0,.51.79.79,0,0,1-.2.35.4.4,0,0,1-.31.11.47.47,0,0,1-.32-.16.37.37,0,0,1-.09-.19,1,1,0,0,1,0-.28,1.41,1.41,0,0,0,.05-.56A.84.84,0,0,0,54.1,10a.87.87,0,0,0-.74-.29,1.55,1.55,0,0,0-.88.45,1.75,1.75,0,0,0-.33.41A1,1,0,0,0,52,11a.94.94,0,0,0,0,.41,1.13,1.13,0,0,0,.22.36,1,1,0,0,0,.46.28,1.23,1.23,0,0,0,.57,0,.79.79,0,0,1,.33,0,.42.42,0,0,1,.35.44A.49.49,0,0,1,53.82,12.72Z"></path></g></g></svg> 