<?xml version="1.0" encoding="UTF-8"?> <svg xmlns="http://www.w3.org/2000/svg" width="69.12mm" height="69.12mm" viewBox="0 0 195.94 195.94"><defs><style>.cls-1{fill:#f4dda5;}.cls-2{fill:#d3a100;}.cls-3{fill:#0f345b;}.cls-4{fill:#fff;}.cls-5{fill:#eb6ea5;}</style></defs><title>アセット 1</title><g id="レイヤー_2" data-name="レイヤー 2"><g id="レイヤー_1-2" data-name="レイヤー 1"><circle class="cls-1" cx="97.97" cy="97.97" r="71.84" transform="translate(-28.7 154.11) rotate(-68.9)"></circle><path class="cls-2" d="M98,195.94a98,98,0,1,1,98-98A98.08,98.08,0,0,1,98,195.94ZM98,32.69A65.28,65.28,0,1,0,163.25,98,65.35,65.35,0,0,0,98,32.69Z"></path><path class="cls-2" d="M133.2,30.86C132.86,23,128.84,16.64,123,15.6s-11.82,3.57-14.83,10.84c4,.42,8.22,1,12.61,1.79S129.31,29.9,133.2,30.86Z"></path><path class="cls-3" d="M135.52,30.77h0a22.55,22.55,0,0,0-3.42-11.37,13.34,13.34,0,0,0-8.73-6.08,12.06,12.06,0,0,0-2.07-.18,14.13,14.13,0,0,0-9,3.57A23,23,0,0,0,106,25.55a28.48,28.48,0,0,0-1.74,6c-.08.48-.15.92-.2,1.33a2.34,2.34,0,0,0,2.07,2.61c4.1.42,8.48,1,13,1.83S128,39,132,40a2.2,2.2,0,0,0,.56.07,2.27,2.27,0,0,0,1.22-.34,2.35,2.35,0,0,0,1.06-1.46q.14-.62.27-1.32a29,29,0,0,0,.44-5Q135.55,31.35,135.52,30.77ZM115.24,20.26a9.54,9.54,0,0,1,6.06-2.48,7.66,7.66,0,0,1,1.26.11A8.67,8.67,0,0,1,128.21,22a16.33,16.33,0,0,1,2.3,5.88l-.5-.11c-1.13-.25-2.27-.5-3.43-.73l-1.26-.26c-1.29-.26-2.6-.51-3.93-.74l-.25,0-.25,0c-1.33-.23-2.63-.44-3.93-.64l-1.3-.2c-1.14-.17-2.27-.33-3.38-.47l-.59-.08A16.81,16.81,0,0,1,115.24,20.26Z"></path><path class="cls-2" d="M132.57,37.79c-4-1-8.43-2-13-2.77s-9-1.43-13.19-1.86c-15.54-1.6-27.07-.56-27.69,2.94-.78,4.45,16.25,11.16,38.05,15S156.8,54.46,157.58,50C158.2,46.51,147.72,41.6,132.57,37.79Z"></path><path class="cls-3" d="M116.3,53.4C102.13,50.89,90,47.24,83,43.58h0a17.57,17.57,0,0,1-5.4-3.95h0a5.14,5.14,0,0,1-1.29-3.23h0a4.14,4.14,0,0,1,.06-.7h0a4.76,4.76,0,0,1,2.32-3.16h0a12.28,12.28,0,0,1,3.71-1.45h0a49.09,49.09,0,0,1,11-1h0a130.24,130.24,0,0,1,13.21.75h0c4.21.43,8.7,1.06,13.35,1.88h0c4.66.82,9.09,1.77,13.2,2.8h0c9.81,2.48,17.68,5.35,22.31,8.28h0a12.22,12.22,0,0,1,3.63,3.27h0a4.79,4.79,0,0,1,.85,2.64h0a3.4,3.4,0,0,1-.05.7h0a4.82,4.82,0,0,1-2.33,3.17h0A12.54,12.54,0,0,1,153.84,55h0a49.19,49.19,0,0,1-11,1h0A159.65,159.65,0,0,1,116.3,53.4ZM81.2,36.68a7.8,7.8,0,0,0,1.69,1.44h0a40.48,40.48,0,0,0,7.63,3.72h0a148.79,148.79,0,0,0,26.59,7h0a154.61,154.61,0,0,0,25.74,2.56h0c5.49,0,9.76-.58,11.61-1.41h0a3.86,3.86,0,0,0,.7-.37h0a5,5,0,0,0-.88-.89h0a22.7,22.7,0,0,0-4.66-2.76h0A100.76,100.76,0,0,0,132,40h0l.57-2.25L132,40c-4-1-8.32-1.93-12.86-2.73h0c-4.55-.8-8.93-1.41-13-1.83h0a124.78,124.78,0,0,0-12.73-.73h0c-5.49,0-9.75.59-11.6,1.41h0a3.86,3.86,0,0,0-.7.37h0a1.31,1.31,0,0,0,.12.15Z"></path><path class="cls-4" d="M117.24,42.68c-3.57-.58-7.06-1-10.38-1.41a75,75,0,0,1-15.65,4.24c-34.33,5.69-38.84,23.3-40.52,28s-4.51,31.58,22,40.9c0,0,12,3,18.22,3a86.29,86.29,0,0,0,31-5.41c13.4-4.82,22.22-16.54,23.53-28.56.59-5.39,1.63-14.74-7.52-26.16a51.45,51.45,0,0,1-7.53-12l-.11,0C126.22,44.29,121.84,43.43,117.24,42.68Z"></path><path class="cls-3" d="M90.86,119.57A70.25,70.25,0,0,1,79,118h0c-3.84-.75-6.87-1.5-6.89-1.5h0l-.21-.06C61.83,113,55.58,106.82,52,100.29h0a39.24,39.24,0,0,1-4.57-18.73h0a28.69,28.69,0,0,1,1.15-8.85h0a34.88,34.88,0,0,1,8.53-14.4h0c6-6.08,16.22-12.11,33.72-15h0A72.48,72.48,0,0,0,106,39.2h0a2.22,2.22,0,0,1,1.08-.15h0c3.37.37,6.88.84,10.5,1.43h0l-.36,2.2.36-2.2c4.65.75,9.08,1.62,13.19,2.58h0l.08,0h0a2.2,2.2,0,0,1,1.56,1.3h0a49.63,49.63,0,0,0,7.22,11.43h0c6.9,8.58,8.4,16.37,8.38,22.1h0a51.44,51.44,0,0,1-.38,5.69h0c-1.42,12.94-10.8,25.31-25,30.42h0A88.61,88.61,0,0,1,91,119.57h-.13Zm-11-5.9a66.71,66.71,0,0,0,11,1.43h0a83.87,83.87,0,0,0,30.29-5.28h0c12.6-4.5,20.87-15.58,22.06-26.7h0a45.19,45.19,0,0,0,.35-5.21h0c0-5-1.14-11.46-7.39-19.31h0a56.41,56.41,0,0,1-7.38-11.42h0c-3.73-.84-7.72-1.62-11.9-2.3h0c-3.35-.54-6.6-1-9.73-1.34h0a76.65,76.65,0,0,1-15.59,4.17h0c-16.82,2.8-26,8.42-31.28,13.73h0a30.67,30.67,0,0,0-7.51,12.79h0a25.85,25.85,0,0,0-.88,7.33h0a34.88,34.88,0,0,0,4,16.58h0C59,103.78,64.24,109,73.27,112.23h0c.55.13,3.26.78,6.58,1.44Z"></path><path class="cls-3" d="M75.69,58.93a9.7,9.7,0,0,1-2.4-1h0c-.74-.39-1.5-.85-2.28-1.36h0c-1.56-1-3.23-2.25-4.8-3.45h0c-3.13-2.38-5.82-4.64-5.85-4.67h0a3.72,3.72,0,0,1-.45-5.24h0a3.7,3.7,0,0,1,5.24-.45h0l.91.75h0c.58.48,1.4,1.14,2.35,1.9h0c1.89,1.5,4.32,3.35,6.3,4.67h0a16.77,16.77,0,0,0,2.7,1.57h0a3.72,3.72,0,0,1,2.74,4.45h0A3.73,3.73,0,0,1,76.53,59h0a3.44,3.44,0,0,1-.84-.1Z"></path><path class="cls-3" d="M119.05,62.29a3.73,3.73,0,0,1,2.21-4.78h0L135,52.43a3.72,3.72,0,0,1,4.78,2.21h0a3.72,3.72,0,0,1-2.21,4.78h0l-13.76,5.07a3.66,3.66,0,0,1-1.29.23h0a3.74,3.74,0,0,1-3.5-2.43Z"></path><path class="cls-3" d="M77,73.91c0,3.86-2.11,7-4.71,7s-4.71-3.14-4.71-7,2.11-7,4.71-7S77,70,77,73.91Z"></path><path class="cls-3" d="M127.89,76c0,3.14-1.72,5.68-3.86,5.68s-3.86-2.54-3.86-5.68,1.73-5.67,3.86-5.67S127.89,72.82,127.89,76Z"></path><path class="cls-3" d="M85.05,37.59a.93.93,0,0,1,.78-1.06h0a80.06,80.06,0,0,1,9-.84h.65a.94.94,0,0,1,.89,1h0a.92.92,0,0,1-1,.89h-.57a56,56,0,0,0-5.6.41h0c-1.78.21-3.13.41-3.13.41H86a.92.92,0,0,1-.91-.79Z"></path><path class="cls-3" d="M89.14,39.75a.92.92,0,0,1,.85-1h0s4.67-.35,6.51-.35h0a.92.92,0,0,1,.93.93h0a.93.93,0,0,1-.93.93h0c-1.67,0-6.36.34-6.37.35h-.07a.92.92,0,0,1-.92-.86Z"></path><path class="cls-5" d="M90.39,141.41S70,114.47,85.59,109.53c0,0,7.46-2.78,10.88,6.33,0,0,12.28-8.27,15.56,1.64C116.07,129.77,90.39,141.41,90.39,141.41Z"></path><path class="cls-3" d="M89.11,142.38a80.14,80.14,0,0,1-5.45-8.44h0c-2.71-4.86-5.51-10.9-5.54-16.3h0a10.32,10.32,0,0,1,1.59-5.82h0A9.76,9.76,0,0,1,85.1,108h0a9.76,9.76,0,0,1,3.08-.47h0a9.31,9.31,0,0,1,5.16,1.5h0a11.45,11.45,0,0,1,3.87,4.52h0c.44-.24,1-.5,1.53-.77h0a17.37,17.37,0,0,1,6.93-1.76h0a8,8,0,0,1,4.61,1.32h0a8.72,8.72,0,0,1,3.27,4.66h0a10.13,10.13,0,0,1,.52,3.18h0c0,3.35-1.62,6.4-3.82,9.08h0a40.87,40.87,0,0,1-7.9,7.06h0a77.28,77.28,0,0,1-11.29,6.56h0a1.58,1.58,0,0,1-.67.14h0a1.58,1.58,0,0,1-1.28-.64Zm-3-31.34h0l-.08,0a6.52,6.52,0,0,0-3.69,2.53h0a7.2,7.2,0,0,0-1,4h0c0,3.72,1.9,8.68,4.15,12.94h0a80.72,80.72,0,0,0,5.42,8.8h0l.79-.39h0c1.23-.63,2.94-1.56,4.84-2.71h0c3.8-2.29,8.34-5.53,11.23-9.06h0c1.94-2.36,3.09-4.78,3.08-7h0a6.89,6.89,0,0,0-.35-2.17h0a5.5,5.5,0,0,0-2-3h0a4.77,4.77,0,0,0-2.8-.77h0c-3.19,0-7.28,2.27-8.13,2.85h0l-.18.11h0a1.57,1.57,0,0,1-1.38.2h0a1.61,1.61,0,0,1-1-1h0a9.11,9.11,0,0,0-3.38-4.7h0a6.1,6.1,0,0,0-3.4-1h0a6.74,6.74,0,0,0-2,.3Z"></path><path class="cls-2" d="M77.54,112.12l-1.16-.31c.77-1.26,2-3.72.41-4.72-3.13-1.93-5.41,1.46-6.74,2.79-22-8.8-20.88-27.31-20.88-27.31S34.6,120.25,72,134.72c2.91,1,4.79.12,5.23-2.45a2.52,2.52,0,0,0-2-2.82c1.4.28,4.19.45,4.66-2.4.26-1.64-1.16-2.51-2.43-3,1.43.16,3.25-.1,3.61-2.35s-4.09-3.39-4.09-3.39,5.54,1.4,6.08-2.46C83.44,112.71,77.54,112.12,77.54,112.12Z"></path><path class="cls-3" d="M73.63,137.11a8.66,8.66,0,0,1-2.32-.51h0l0,0c-12-4.61-19-11.69-22.8-19.24h0a41.65,41.65,0,0,1-4-21.83h0a51.21,51.21,0,0,1,2.8-13.66h0a2,2,0,0,1,2.28-1.23h0a2,2,0,0,1,1.57,2.07h0v.13h0a4.2,4.2,0,0,0,0,.51h0a19.5,19.5,0,0,0,.16,2h0a25.28,25.28,0,0,0,1.88,6.79h0c2.22,5.1,6.69,11.15,16.34,15.37h0a15.89,15.89,0,0,1,1.3-1.29h0a6.13,6.13,0,0,1,4.43-1.68h0a5.63,5.63,0,0,1,2.57.87h0a3.58,3.58,0,0,1,1.43,1.66h0a4,4,0,0,1,.28,1.87h0a6.51,6.51,0,0,1-.3,1.46h0l.59.14h0a8.81,8.81,0,0,1,3.79,1.91h0A4.25,4.25,0,0,1,85,115.87h0a1.71,1.71,0,0,1,0,.31h0a5,5,0,0,1-1.07,2.5h0a4.61,4.61,0,0,1-1.33,1.11h0a3.55,3.55,0,0,1,.45,2h0c0,.09,0,.19,0,.3h0a4.86,4.86,0,0,1-1.5,2.9h0a3.91,3.91,0,0,1,.36,2h0a3.05,3.05,0,0,1,0,.41h0A4.78,4.78,0,0,1,79.28,131h0l-.1,0h0a3.91,3.91,0,0,1,.06,1.09h0a4.66,4.66,0,0,1-.06.49h0A5.53,5.53,0,0,1,77.34,136h0a5.11,5.11,0,0,1-3.66,1.09h-.05Zm.29-4c.58,0,.75-.07.88-.17h0a1.7,1.7,0,0,0,.45-1h0a.19.19,0,0,1,0-.08h0c0-.18,0,0-.06-.16h0a1.8,1.8,0,0,0-.66-.35h0a2,2,0,0,1-1.29-2.41h0a2,2,0,0,1,2.31-1.44h0a4.76,4.76,0,0,0,.7.09h0a2.42,2.42,0,0,0,1.2-.14h0c.18-.14.25-.08.4-.72h0v0h0s0,0,0,0h0s0,0-.1-.11h0a3.22,3.22,0,0,0-1-.54h0a2,2,0,0,1-1.3-2.31h0a2,2,0,0,1,2.16-1.55h.18a2,2,0,0,0,1-.11h0c.08-.08.13,0,.23-.4h0a3.14,3.14,0,0,0-.62-.47h0a10.07,10.07,0,0,0-1.89-.83h0l-.12,0h0A2,2,0,0,1,75,117.84h0a2,2,0,0,1,2.41-1.41h.06l.24,0h0a6.35,6.35,0,0,0,.86.11h0a5.33,5.33,0,0,0,1.51-.08h0a1.36,1.36,0,0,0,.76-.37h0a1,1,0,0,0,.19-.51h0v0h0c0-.11,0,0-.08-.2h0a2.75,2.75,0,0,0-.89-.57h0a9.68,9.68,0,0,0-2.54-.69h0l-.17,0h0l.16-1.61-.16,1.61-.3-.06-1.2-.32h0a2,2,0,0,1-1.32-1.2h0a2,2,0,0,1,.16-1.77h0a6.41,6.41,0,0,0,.89-2.07h0a1.51,1.51,0,0,0-.59-.18h0a2.3,2.3,0,0,0-1.55.74h0c-.66.56-1.29,1.35-2,2h0a2,2,0,0,1-2.15.44h0c-11.47-4.57-17.15-11.88-19.78-18h0c-.23-.54-.44-1.08-.64-1.61h0c-.17,1.16-.31,2.4-.4,3.7h0A37.74,37.74,0,0,0,52,115.54h0c3.39,6.67,9.5,13,20.66,17.31h0a4.58,4.58,0,0,0,1.24.28Z"></path><path class="cls-2" d="M114.53,114.23l1.13-.29c-.72-1.23-1.89-3.65-.31-4.58,3.07-1.82,5.22,1.52,6.48,2.83,23.88-7.89,24.23-32.81,24.23-32.81s18.21,37.12-26.33,56.16c-2.76,1.18-4.79.7-5.35-1.23-.47-1.64,1.2-2.93,2.12-3.22-1.37.24-4.07.36-4.47-2.42-.23-1.6,1.17-2.41,2.41-2.81-1.4.12-3.16-.17-3.47-2.36s4-3.2,4-3.2-5.4,1.25-5.85-2.51C108.79,114.69,114.53,114.23,114.53,114.23Z"></path><path class="cls-3" d="M114.27,137.32a4.39,4.39,0,0,1-1.75-2.47h0a4.32,4.32,0,0,1-.16-1.06h0a4.49,4.49,0,0,1,.18-1.25h0l-.25-.14h0a4.67,4.67,0,0,1-2.18-3.45h0c0-.18,0-.37,0-.56h0a4,4,0,0,1,.4-1.78h0a4.61,4.61,0,0,1-1.4-2.83h0c0-.14,0-.28,0-.42h0a3.56,3.56,0,0,1,.47-1.78h0a4.68,4.68,0,0,1-2.25-3.55h0c0-.16,0-.31,0-.46h0a4.18,4.18,0,0,1,1.48-3.21h0a7.38,7.38,0,0,1,2.5-1.39h0a15.94,15.94,0,0,1,1.71-.46h0a6.53,6.53,0,0,1-.26-1.6h0a3.81,3.81,0,0,1,.35-1.72h0a3.5,3.5,0,0,1,1.38-1.5h0a5.47,5.47,0,0,1,2.7-.8h0a6.1,6.1,0,0,1,4.13,1.77h0c.47.44.89.88,1.23,1.27h0a31.53,31.53,0,0,0,18.12-16.57h0a38.36,38.36,0,0,0,3.57-13.79h0c0-.16,0-.22,0-.22h0a1.94,1.94,0,0,1,1.52-1.86h0a1.93,1.93,0,0,1,2.16,1h0a45.44,45.44,0,0,1,3.88,17.71h0a38.21,38.21,0,0,1-5.9,21.32h0c-4.64,7.32-12.55,14.32-25.29,19.76h0a9,9,0,0,1-3.36.8h0a4.93,4.93,0,0,1-2.85-.8Zm2.2-4c-.22.24-.24.38-.23.39h0s0,0,0,0h0a.62.62,0,0,0,.2.34h0a1.14,1.14,0,0,0,.64.12h0a5.3,5.3,0,0,0,1.89-.48h0c12.18-5.22,19.36-11.7,23.54-18.28h0A34.24,34.24,0,0,0,147.8,96.3h0a41.69,41.69,0,0,0-1.07-8.75h0a43,43,0,0,1-2,6h0A35.63,35.63,0,0,1,122.44,114h0a1.93,1.93,0,0,1-2-.5h0c-.63-.66-1.22-1.43-1.85-2h0a2.31,2.31,0,0,0-1.47-.78h0a1.35,1.35,0,0,0-.62.18h0a6.3,6.3,0,0,0,.83,2h0a1.93,1.93,0,0,1,.12,1.72h0a1.93,1.93,0,0,1-1.3,1.14h0l-1.17.29h0l-.3,0h-.08l-.3,0h0c-.26,0-.64.1-1,.2h0a5.15,5.15,0,0,0-2,.86h0c-.21.21-.16.17-.17.25h0v0h0c.11.55.16.52.47.73h0a4,4,0,0,0,1.63.27h0a7.76,7.76,0,0,0,1.32-.14h.08a1.92,1.92,0,0,1,2.31,1.42h0a1.93,1.93,0,0,1-1.38,2.34h0l-.06,0h0l-.24.06h0c-.2.07-.48.17-.79.3h0a5,5,0,0,0-1.49.87h0c.09.35.14.31.2.38h0a1.6,1.6,0,0,0,.83.14h.31a1.94,1.94,0,0,1,2.07,1.54h0A2,2,0,0,1,115,127.7h0a3.33,3.33,0,0,0-.82.37h0c-.21.13-.27.23-.27.24h0v0h0v.06h0c.12.59.2.57.34.69h0a2.16,2.16,0,0,0,1,.18h0a5.46,5.46,0,0,0,.85-.08h0a1.93,1.93,0,0,1,2.22,1.44h0a1.94,1.94,0,0,1-1.3,2.31h0a1.9,1.9,0,0,0-.61.42Z"></path><path class="cls-4" d="M84.25,91.72l21.49.94s0,15.63-6.16,16.58S84.25,91.72,84.25,91.72Z"></path><path class="cls-3" d="M97.06,110.71a10,10,0,0,1-7-3.28h0a26,26,0,0,1-4.44-6.29h0A51.93,51.93,0,0,1,82,92.37h0l2.23-.65L82,92.37a2.35,2.35,0,0,1,.37-2h0a2.32,2.32,0,0,1,1.86-.93h21.26a2.33,2.33,0,0,1,1.67.7h0a2.31,2.31,0,0,1,.65,1.69h0a43.19,43.19,0,0,1-.6,5.6h0c-.56,3.1-1.48,6.86-3.63,9.78h0a8.09,8.09,0,0,1-6.49,3.54h0ZM88.34,96.07a26.89,26.89,0,0,0,5,8.06h0a5.5,5.5,0,0,0,3.73,1.93h0a3.18,3.18,0,0,0,2.48-1.25h0a11.78,11.78,0,0,0,2.06-3.94h0a33.38,33.38,0,0,0,1.4-6.82H87.51c.24.62.52,1.3.83,2Z"></path><path class="cls-3" d="M85.31,10.56c2.35.07,1.31,1.6,2.38,2.77.24.26,1.47-.05,2.15.61,1.12,1.08,2.39,5.8.61,6.77-.67.36-1.24-.09-1.87-.09A6.1,6.1,0,0,1,89,19a4.15,4.15,0,0,0-.47-2.9c-.09-.15-.11-.34-.31-.34s-.09-.12-.25-.12v.25c-.48,1,.76,3-.65,3.46a1.53,1.53,0,0,1-1.24-.2c-.15-.09-.38-.16-.38-.37h-.25c.28,2.87,2.1,5.66,5.29,5.66l1.34-.45a9,9,0,0,0,2.77-1.85,9.21,9.21,0,0,0,1.35-1.77c.3-.51.42-1.29,1-1.59a1,1,0,0,1,1.47.54,2.71,2.71,0,0,1-.8,2.21L97,22.74a11.71,11.71,0,0,1-6.52,3.74,6.11,6.11,0,0,1-5.58-2.68A10.9,10.9,0,0,1,83.42,21c-.18,0-.25-.09-.25.12a4.38,4.38,0,0,1-1.51.25,11.39,11.39,0,0,1-2.84,4.3,2.3,2.3,0,0,1-1.54.13c-1.41-.36-.58-1.41,0-2,.14-.16.26-.52.49-.52-.09-.22-.17-.67-.39-.79-.81-.44-1.74,1-2.87-.48a1.58,1.58,0,0,1-.39-.87,12.54,12.54,0,0,1,2.39-1.63c-.2-.61-.41-1.22-.62-1.83-.14-.3-.39-.44-.39-.81.25-.21.39-.51.69-.65,1.83-.95,1.77,1.9,3.09,1.9.58-.32,1.49.13,1.3.86-.15.58-.85.91-1,1.47,0,.27,0,.55.07.82h.25v-.13A2.17,2.17,0,0,1,81,21l.52.15c-.08-1.22.8-1.9.91-3s-1.06-3.54-.27-4.53a.72.72,0,0,1,.51-.27c2.1-.34,1.83,2.42,2.12,2.42v.13h.13a4,4,0,0,0,.3-1C85.27,13.38,84.66,11.85,85.31,10.56Z"></path><path class="cls-3" d="M61.28,17.6c1.65.1,2.27,1.46,2.27,3,1.34-.49,2.28-1.84,3.65-2.23.17-.06.12,0,.12-.16,5.18,1.25-4.07,4-3.12,5.42.12.18.51.19.73.21h3.14l2,.13a7.16,7.16,0,0,1,2.46.14c.46.18,1,.82.7,1.35-.64,1.35-3.06.61-4.3.57l-2.77.11c-.52,0-1.36.05-1.7.42-.54.56-.1,3.9-.11,4.86L64.22,34c-.08,1,.13,2.07-1.18,2a.91.91,0,0,1-.93-.57,7.7,7.7,0,0,1,0-2.75c0-1.47-.07-2.93-.11-4.4-.07-.67-.15-1.34-.23-2L61.41,25c-1,.46-3.68,3.58-4.71,1.47a1.06,1.06,0,0,1,0-1c.6-1,2.94-2.18,4-2.94.21-.16.45-.66.7-.66-.41-1.18-.23-2.54-.59-3.75,0-.05,0-.1,0-.15h.12Z"></path><path class="cls-3" d="M49.61,29c1,0,3.23.09,3.31,1.26,0,.33-.2.84.06,1.05.71.09,1.53-.31,2.06.29a.76.76,0,0,1,.06.66c-.09.32-.45.62-.52.94-.13.64.9,1.81,1.1,2.5,0,.19,0,.39.08.58s-.15.35-.23.52c-1.7,1.65-2.42-1.73-3.33-2-.65-.17-1.33.34-2.08.25-1-.14-1.1-1.12-.38-1.68a1.46,1.46,0,0,1,.75-.38V32.8c-1.11.3-2.89.66-2.89-1.13l1.64-1.38A1.28,1.28,0,0,1,49.61,29Z"></path><path class="cls-3" d="M46.22,34.69a4.11,4.11,0,0,1,1.31.36,7.72,7.72,0,0,1,2.21,3.54c-.43.29-.78.69-1.38.65-1.22-.08-1.75-1.59-2.23-2.43-.2-.35-.55-.69-.54-1.11A1.17,1.17,0,0,1,46.22,34.69Z"></path><path class="cls-3" d="M35.65,36.83c2.76.17.22,2.77,0,2.77,0,.16,0,.12.13.12.12.19.37.39.37.63.9-.28,2-.85,2.43.36.05.14.19.27,0,.27-.14.27-.88.77-.88,1-.19.58,1.43,1.78.39,2.62s-1.79-.83-2.58-1.09-2,.5-2.38-.56a.88.88,0,0,1,.32-.94c.19-.19.38-.41.19-.67-.36-.5-1.91.43-2.47-.81-.39-.83.35-1,.67-1.6s-.18-1.21.61-1.53,1.29.05,2,.05A2,2,0,0,1,35.65,37Z"></path><path class="cls-3" d="M56,38.21c.5,0,2,0,1.82.88-.32,1.5-4.11,2.33-5.12,1.18-1.28-1.46,1.8-1.68,2.67-1.68Z"></path><path class="cls-3" d="M41.81,40l1.32.38L44,41c.55.35,1.93,1.1,1.21,2C44,44.52,39.76,41.69,41.81,40Z"></path><path class="cls-3" d="M28.23,44.63a3.3,3.3,0,0,1,2,.54c.64.45,2.12,2.81,1.2,3.49-1.2.88-3.49-1.81-3.6-2.79A1.62,1.62,0,0,1,28.23,44.63Z"></path><path class="cls-3" d="M38.54,46.64c.65.13,2.64.09,1.73,1.39-.52.74-4.06,1.36-5,1a1,1,0,0,1-.6-.56c-.36-.83.79-1.12,1.29-1.32.21-.09.41-.29.67-.29l1,.13Z"></path><path class="cls-3" d="M23.7,48.78c1.24.29,1.51,1.11,2.45,1.8.65.49,3.62,1.29,2.29,2.68s-2.77-.27-3.72-1a5.74,5.74,0,0,1-1.92-1.67,1.14,1.14,0,0,1,.9-1.71Z"></path><path class="cls-4" d="M28.25,112.15c.51,2.1-.77,2.46-1.56,2.63.64,2.45.82,3.06,1.23,4.38,0,.15.79,2.59.92,3.1a1.86,1.86,0,0,1-1.41,2.53,1.7,1.7,0,0,1-2.21-1.05c-.39-.92-1.32-4.36-2.39-8.26l-.62.11c.33,1,.52,1.67.63,2.14,1.53,6.24-1.25,9.12-4.52,9.92-4.6,1.13-7.37-2.1-8.23-5.58a2,2,0,0,1,.31-1.95,2.4,2.4,0,0,1,1.41-.68,2.12,2.12,0,0,1-1.5-1.54,1.62,1.62,0,0,1,.1-1.15,6.21,6.21,0,0,1-1.66-2.81c-.52-2.15.7-4.38,3.61-5.1,3.76-.92,6.35,1.28,7.84,3,.23,0,1.34-.3,1.58-.34-.66-2.58-.67-3-.56-3.39a1.9,1.9,0,0,1,1.48-1.29c1.89-.46,2.28,1.13,2.47,1.92l.48,1.95C26.4,110.58,27.8,110.3,28.25,112.15Zm-12,.8a3.85,3.85,0,0,0-2.84-.48c-.34.09-1.11.34-.94,1a2.64,2.64,0,0,0,.58.92A16.63,16.63,0,0,1,16.27,113Zm-3.64,6.52c.72.2.9.76,1.18,1.6.5,1.49,1.4,3,3.67,2.43a2.66,2.66,0,0,0,2.24-2.37,19.5,19.5,0,0,1-6.2-2A2.37,2.37,0,0,1,12.63,119.47Zm6.76-2.16a4.34,4.34,0,0,0-.4-1.09,12.28,12.28,0,0,0-1.91.58A13.24,13.24,0,0,0,19.39,117.31Z"></path><path class="cls-4" d="M32.55,131.33a2,2,0,1,1,2.05,3.48l-.32.19c.73,1.09,1.6,2.45-.19,3.5-1.62.94-2.34-.21-3.17-1.55l-.72.42c.41.57.61.88.86,1.3a12.09,12.09,0,0,1,1.56,4.65,5.54,5.54,0,0,1-2.92,5.44,6,6,0,0,1-5.77.32,9.58,9.58,0,0,1-3.53-3.5,2.37,2.37,0,0,1-.5-1.63,2,2,0,0,1,1-1.47c1.51-.88,2.29.41,2.62,1s1,1.61,2,1.82a2.5,2.5,0,0,0,1.84-.31c1.41-.82,1.87-2.07.3-4.77a7.16,7.16,0,0,0-.66-1l-2.68,1.56a7.36,7.36,0,0,1-3.23,1.27,4,4,0,0,1-4-2.29,4.88,4.88,0,0,1,1.75-7c3.81-2.22,7.48.7,8.54,1.57l1.34-.78c-.29-.46-1.51-2.48-1.74-2.87a2,2,0,1,1,3.32-2c.27.46,1.51,2.51,1.76,2.95Zm-8.53,5a2.91,2.91,0,0,0-3-.31c-.7.41-.9,1-.62,1.5s.86.43,2.06-.27Zm14.37,4a13.63,13.63,0,0,1-.94,3.8,2.64,2.64,0,0,1-1,1.22,2.19,2.19,0,0,1-2.91-.83c-.43-.74-.21-1.24.22-2.32a15.1,15.1,0,0,0,.91-3.52,1.8,1.8,0,0,1,.83-1.34,2.12,2.12,0,0,1,2.6.69C38.34,138.47,38.53,138.84,38.39,140.34Z"></path><path class="cls-4" d="M42.39,154.76c.81.73,1.45,1.3,2,1.77L45,157a1.82,1.82,0,0,1,.15,2.82c-1.2,1.27-2.29.42-2.89-.05-.06-.07-.44-.36-.71-.62s-1.78-1.59-2.06-1.86c-.23.21-.56.53-.95.94-.92,1-1.31,1.86.88,3.93,1.89,1.79,3.26,2.09,4.74.52a6.54,6.54,0,0,0,1.31-2.08,3.83,3.83,0,0,1,.56-.85,2,2,0,0,1,2.86.19,2.34,2.34,0,0,1,.46,3,11,11,0,0,1-2.06,2.87c-3.46,3.67-6.57,3.26-10.75-.7-1.48-1.4-3.41-3.53-3.1-6.18a6.73,6.73,0,0,1,2-3.61c.09-.09.45-.47.94-.92a12.27,12.27,0,0,1-1.67-1.76,1.73,1.73,0,0,1,.35-2.19,1.71,1.71,0,0,1,2.5-.25,13,13,0,0,1,1.7,1.6l1.22-1.1a10.45,10.45,0,0,1-1.75-1.83,1.75,1.75,0,0,1,.35-2.19,1.91,1.91,0,0,1,3,.13c.23.21,1.13,1.13,1.32,1.31l.46-.38a2,2,0,0,1,3.09-.06c1,.95,1.37,2.14.05,3.24l-.31.28c2.22,2,2.47,2.25,3.09,2.77.2.19,1.23,1.05,1.44,1.24a1.83,1.83,0,0,1,.17,2.84,1.77,1.77,0,0,1-2.39.33c-.94-.69-3.56-3.07-5.29-4.68Z"></path><path class="cls-4" d="M65.53,161.81a5.74,5.74,0,0,1,2.94,4.06c.36,2.36-.59,4.9-1.81,7.15-2.39,4.4-5,6.27-9.2,5.63a16.66,16.66,0,0,1-5.25-1.83c-1.13-.61-1.66-1-1.89-1.55a2,2,0,0,1,.14-1.81,1.84,1.84,0,0,1,2.8-.77l1.47.82c4.21,2,6.18.79,8-2.62,1.36-2.52,2.11-4.95.38-5.89-2.17-1.18-6.1.75-7.47,3.28-.16.29-.76,1.53-.89,1.78-.26.48-1,1.79-2.84.78A1.9,1.9,0,0,1,50.78,169a13.26,13.26,0,0,1,1.35-3.12,60,60,0,0,1,4-6.6c.8-1.08,1.59-2.16,3.34-1.22.52.28,1.94,1.15,1.13,2.65a4.39,4.39,0,0,1-.71.89A6.4,6.4,0,0,1,65.53,161.81Z"></path><path class="cls-4" d="M85.12,182.74a2.07,2.07,0,1,1-1,4l-14.75-3.58a2.07,2.07,0,1,1,1-4l5.24,1.28,2-8-4.14-1a2.08,2.08,0,1,1,1-4l12.54,3a2.08,2.08,0,1,1-1,4l-4.14-1-1.95,8Z"></path><path class="cls-4" d="M105.5,170.72c2-.07,3.23.59,3.32,3.1l.33,10.2c.08,2.38-1,3.24-3.1,3.31l-11.82.39a2.09,2.09,0,1,1-.13-4.17l10.06-.33a.47.47,0,0,0,.49-.54l-.24-7.27a.47.47,0,0,0-.52-.51l-9.8.32A2.06,2.06,0,1,1,94,171.1Z"></path><path class="cls-4" d="M124.64,165.93c2.59-.78,3.12.89,3.34,1.62a19.76,19.76,0,0,1,.21,7.72,15.34,15.34,0,0,1-5.87,9.1,12.16,12.16,0,0,1-3.13,1.9,2.25,2.25,0,0,1-2.65-1.7c-.38-1.25.5-1.81,1.44-2.41,4.83-3.07,6.37-6.31,6.1-10.5a3.72,3.72,0,0,0-.11-.88c-.07-.23-.22-.21-.41-.15l-10.28,3.08a2.1,2.1,0,1,1-1.2-4Z"></path><path class="cls-4" d="M133.24,169a1.73,1.73,0,0,1-2.6-.61,1.75,1.75,0,0,1,.65-2.63l10.14-6.09a2.08,2.08,0,0,1,3.1.49c1.51,2.51.69,7.82-.9,8.77A1.88,1.88,0,0,1,142,169a8.9,8.9,0,0,1,.52,5.55c-.46,1.81-1.49,3.62-2.41,4.17a2.09,2.09,0,0,1-2.72-.79c-.51-.86-.21-1.32.59-2.54,1.73-2.64.72-4.49-.38-6.5a1.95,1.95,0,0,1,3.24-2.15,7,7,0,0,0,.6-1.94,1.45,1.45,0,0,0,0-.62c-.06-.09-.13-.05-.3,0Z"></path><path class="cls-4" d="M152.52,161.49a2.19,2.19,0,1,1-3.15-3l10.46-10.74a2.19,2.19,0,1,1,3.12,3.06Z"></path><path class="cls-4" d="M161.78,141.65a2,2,0,1,1-3.59-2l7.17-13.09c.65-1.19,1.67-1.9,3-1.19,1.51.83,4.25,4.17,5.06,11.19.59-.17,1.2-.33,1.81-.52,1.14-.32,1.8-.51,2.56-.09a2.61,2.61,0,0,1,.92,3.37c-.44.8-1,.93-2.39,1.23a35.31,35.31,0,0,0-7.11,2.11c-1.53.6-2.07.81-2.79.41a2.41,2.41,0,0,1-.86-3.08c.28-.5.5-.9,4-2.19-.19-3.84-1.39-6.12-1.94-6.42-.14-.08-.2,0-.31.25Z"></path><path class="cls-4" d="M177.51,124.21a2,2,0,0,1-2.64,1.76c-1.87-.43-1.86-1.71-1.63-2.73l3.4-14.6a2.19,2.19,0,1,1,4.25,1Z"></path><path class="cls-3" d="M68.28,144l-2.69,3.56c-.42.57-.82.72-1.43.26l-1.4-1.06.43-1,1.3,1c.14.11.24.09.32,0l.35-.47-4.5-3.38-1.11,1.48-.9-.67L62,139.3Zm-6.77-2.26-.36.49,4.5,3.38.36-.49Zm2.28-6.34L67.2,138l.38-.51.91.68-.38.51,3.41,2.57L71,142l-3.42-2.57-.31.41,3.06,2.3-.48.64-3.06-2.3-.33.44,3.69,2.78-.54.72-8.3-6.24.55-.72,3.7,2.78.33-.44-3-2.28.48-.65,3,2.29.31-.41-3.41-2.57Zm-1.42,5.2-.38.51,4.5,3.38.38-.51Z"></path><path class="cls-3" d="M71.38,148.94h0a9,9,0,0,1-2.52,1.41l-.08-1.26a8.16,8.16,0,0,0,2.85-1.31l-1.7-.77.43-.94,2,.88.45-1,1,.44-.45,1,1.55.7-.43.95-1.52-.7a8.15,8.15,0,0,0,.91,1.87l-1.08.43a4.31,4.31,0,0,1-.34-1.2h0l-1.14,2.5-1-.43Zm0-4.62a9.48,9.48,0,0,0,3.93.13v0l-3-1.38.43-.94,3.87,1.76.34-.75,1,.43-.34.76,3.82,1.74-.43.94-3-1.35v0a9.74,9.74,0,0,0,2.59,2.84l-.92.8a10.11,10.11,0,0,1-2.64-3.81l-1,2.16-1-.44.93-2a11.84,11.84,0,0,1-4.57.38Zm6.19,6.15a7.08,7.08,0,0,0,1.1,3l-1.07.64a8,8,0,0,1-.68-2.6h0L75.7,154l-1-.44,1.1-2.42h0a7.88,7.88,0,0,1-2.8,1l-.34-1a7.68,7.68,0,0,0,3.56-1.26l-1.36-.62.43-.94,1.5.69.46-1,1,.44-.46,1,2,.94-.43.94Z"></path><path class="cls-3" d="M84.44,154.21A9.08,9.08,0,0,1,81,155.79l-.46-1.09a7,7,0,0,0,3-1.2Zm-1.5-7.83,1.1.23-1.16,5.55,8.43,1.77-.2,1L86.72,154l-.63,3-1.15-.24.63-3-4-.84Zm2,.13,6.84,1.43-1.1,5.27-6.85-1.43Zm.29,3.93-.15.71,4.71,1,.15-.71Zm.29-1.41-.13.66,4.71,1,.13-.66Zm.3-1.43-.14.67,4.71,1,.15-.67Zm4.23,10.05a8.47,8.47,0,0,1-2.44-2.81l1-.33a7,7,0,0,0,2.25,2.32Z"></path><path class="cls-3" d="M97.94,157.33a16.22,16.22,0,0,1-1.51-2.09,6,6,0,0,1-2.22,2.93l-.82-1a5.15,5.15,0,0,0,2.37-3.75l-2.35,0,0-1.09,2.46,0,0-2.09h-.57a15.53,15.53,0,0,1-.93,1.57l-1-.62a8.15,8.15,0,0,0,1.61-3.43l1.16.18c-.09.33-.18.6-.38,1.19l2.9,0,0,1.1-1.71,0,0,2.09,1.84,0,0,1.09-1.93,0c0,.09,0,.21,0,.35a9.36,9.36,0,0,0,.74,1.26c.4.53.91,1.12,1.25,1.49Zm5.38-9,.15,9.57-1.15,0v-.65l-2,0,0,.8-1.08,0L99,148.39Zm-3.19,1.13.12,6.77,2,0-.11-6.76Z"></path><path class="cls-3" d="M108.29,146.78l1.09-.24.15.68,4.47-1,.2.89-4.47,1,.11.51,3.59-.8.47,2.11-3.59.8.11.47,3.81-.85.3,1.31.72-.16.2.91-.72.16.41,1.83-1.12.25-.12-.52-2.69.6.17.79a1,1,0,0,1-.69,1.27l-2,.43-.4-1,1.62-.37c.32-.07.31-.18.26-.4l-.1-.45-3.89.86-.17-.79,3.89-.87-.13-.56-4.53,1-.19-.82,4.54-1-.12-.53-3.84.85-.18-.81,3.83-.86-.1-.47-3.49.78-.47-2.11,3.49-.78-.12-.51-4.41,1-.2-.89,4.42-1Zm-1.77,3.39.14.6,2.4-.53-.13-.6Zm3.5-.78.13.61,2.47-.56-.13-.6Zm.58,2.64.12.53,2.67-.59-.12-.54Zm.31,1.36.12.56,2.7-.6-.13-.56Z"></path><path class="cls-3" d="M114.68,145.61l3.13-1.46.42.89-3.13,1.46Zm.35,1.54,3.78-1.77.43.91-3.79,1.77Zm1,1.29,3.12-1.46.42.89-3.13,1.46Zm.69,1.5,3.13-1.47.38.81-3.13,1.46Zm4.88,2.28.25.54-2.23,1,.19.41-.9.42-1.52-3.26,3.13-1.46.94,2h0a6.67,6.67,0,0,0-.47-2.45l1-.36a9,9,0,0,1,.56,3.24Zm-.1-8.74a7.8,7.8,0,0,1,.23,1.13,4.93,4.93,0,0,1,1.29.07l0,1a6.75,6.75,0,0,0-1.24-.07,8.13,8.13,0,0,1-1,2.71l-1-.53a4.21,4.21,0,0,0,1-2.13c-.44,0-.71.08-1.24.17v-.93a7.21,7.21,0,0,1,1.24-.21,4,4,0,0,0-.19-.76l-1.58.74-.4-.85,5-2.33a20.06,20.06,0,0,1,1.39,3.36c.31,1.15-.31,1.44-.55,1.55l-1,.46-.6-.9.91-.43a.42.42,0,0,0,.24-.52,11.7,11.7,0,0,0-.86-2.26Zm-2.81,8.33.53,1.12,1.35-.63-.52-1.13Zm3.45-4.82a10.09,10.09,0,0,1,2.26.46l-.2,1-1-.27a5.52,5.52,0,0,0-1.3-.18Zm.12,2,.94-.44,1,2.11c0,.1.14.28.33.2l.5-.24c.26-.12.17-.39-.11-1.18l1-.14c.27.79.59,1.71-.14,2l-1.18.55a.78.78,0,0,1-1.14-.34Zm3.38-1.87a11,11,0,0,1,2.14,2.44l-.81.74a12.72,12.72,0,0,0-2.1-2.52Z"></path><path class="cls-3" d="M129.69,142.77a9.89,9.89,0,0,1,.89,1.93,3.76,3.76,0,0,0,2.51,0l-2.69-3.5-2.72,2.09-.44-.58-.71.55-1.55-2,3.39-2.6-.59-.78,1-.74.59.78,3.43-2.63,1.54,2-.74.57.44.58-2.7,2.07,1,1.27,2.7-2.08.67.87-2.71,2.07,1.22,1.59a5,5,0,0,0,.61-.41l3.15-2.41.49,1L135.06,145a4.62,4.62,0,0,1-4.19.76,5.83,5.83,0,0,1,.07,2.7l-1.2-.4a6.84,6.84,0,0,0-1.08-4.74Zm3.49-5.07-.66-.85-6,4.59.66.85Z"></path></g></g></svg> 